<svg xmlns="http://www.w3.org/2000/svg" xmlns:xlink="http://www.w3.org/1999/xlink" width="500" zoomAndPan="magnify" viewBox="0 0 375 374.999991" height="500" preserveAspectRatio="xMidYMid meet" version="1.0"><defs><clipPath id="fd0b8efe00"><path d="M 37.5 37.5 L 337.5 37.5 L 337.5 337.5 L 37.5 337.5 Z M 37.5 37.5 " clip-rule="nonzero"/></clipPath><clipPath id="0dbc0c62f6"><path d="M 71.445312 179 L 176 179 L 176 282 L 71.445312 282 Z M 71.445312 179 " clip-rule="nonzero"/></clipPath><clipPath id="4d83d9572c"><path d="M 162 176 L 303.195312 176 L 303.195312 312.703125 L 162 312.703125 Z M 162 176 " clip-rule="nonzero"/></clipPath></defs><g clip-path="url(#fd0b8efe00)"><path fill="#222222" d="M 187.5 37.5 C 104.65625 37.5 37.5 104.65625 37.5 187.5 C 37.5 270.34375 104.65625 337.5 187.5 337.5 C 270.34375 337.5 337.5 270.34375 337.5 187.5 C 337.5 104.65625 270.34375 37.5 187.5 37.5 " fill-opacity="1" fill-rule="nonzero"/></g><path fill="#ffbd59" d="M 134.503906 129.054688 C 133.585938 128.605469 132.703125 128.140625 131.851562 127.667969 C 134.34375 115.871094 137.402344 101.242188 140 88.449219 C 140.289062 87.039062 140.589844 85.6875 140.917969 84.402344 C 143.058594 75.996094 146.015625 70.324219 149.234375 66.980469 C 153.191406 62.867188 157.523438 62.292969 161.160156 64.527344 C 162.683594 65.464844 164.085938 66.890625 165.28125 68.761719 C 166.128906 70.085938 167.171875 71.296875 168.335938 72.398438 C 170.453125 74.410156 172.847656 75.96875 175.402344 77.074219 C 181.753906 79.824219 189.0625 79.78125 195.386719 76.925781 C 197.8125 75.832031 200.09375 74.320312 202.121094 72.398438 C 203.28125 71.296875 204.324219 70.085938 205.175781 68.761719 C 206.515625 66.679688 208.109375 65.136719 209.835938 64.21875 C 213.101562 62.5 216.855469 62.980469 220.382812 66.175781 C 223.777344 69.246094 226.953125 74.824219 229.261719 83.355469 C 229.695312 84.949219 230.09375 86.648438 230.457031 88.449219 C 233.136719 101.679688 236.316406 116.878906 238.855469 128.875 C 238.734375 128.933594 238.617188 128.992188 238.496094 129.054688 C 224.726562 135.855469 206.265625 139.609375 186.503906 139.609375 C 166.746094 139.609375 148.277344 135.855469 134.503906 129.054688 Z M 134.503906 129.054688 " fill-opacity="1" fill-rule="nonzero"/><path fill="#ffbd59" d="M 277.375 161.863281 C 277.375 176.3125 236.121094 188.023438 185.226562 188.023438 C 134.339844 188.023438 93.082031 176.3125 93.082031 161.863281 C 93.082031 153.597656 106.589844 146.222656 127.683594 141.429688 C 127.878906 141.527344 128.066406 141.621094 128.261719 141.71875 C 143.9375 149.46875 164.617188 153.734375 186.503906 153.734375 C 208.273438 153.734375 228.863281 149.511719 244.503906 141.832031 C 264.601562 146.628906 277.375 153.824219 277.375 161.863281 Z M 277.375 161.863281 " fill-opacity="1" fill-rule="nonzero"/><g clip-path="url(#0dbc0c62f6)"><path fill="#ffbd59" d="M 175.9375 266.664062 C 174.914062 268.179688 173.921875 269.707031 172.960938 271.257812 C 170.835938 274.664062 168.945312 277.953125 167.277344 281.097656 L 98.414062 246.238281 L 122.015625 236.398438 L 71.445312 207.792969 L 97.863281 179.089844 C 102.988281 182.210938 109.777344 184.984375 118.089844 187.347656 C 118.164062 187.371094 118.238281 187.390625 118.308594 187.410156 C 124.425781 220.078125 152.996094 248.519531 175.9375 266.664062 Z M 175.9375 266.664062 " fill-opacity="1" fill-rule="nonzero"/></g><g clip-path="url(#4d83d9572c)"><path fill="#ffbd59" d="M 252.371094 239.628906 L 279.058594 245.117188 C 279.058594 245.117188 206.300781 254.398438 162.472656 312.621094 C 162.472656 312.621094 176.351562 248.324219 249.09375 213.316406 C 251.273438 212.269531 252.648438 210.042969 252.648438 207.617188 L 252.648438 187.265625 C 261.714844 184.671875 268.957031 181.582031 274.171875 178.082031 C 275.136719 177.433594 276.023438 176.777344 276.832031 176.117188 L 303.214844 207.796875 Z M 252.371094 239.628906 " fill-opacity="1" fill-rule="nonzero"/></g><path fill="#ffbd59" d="M 178.914062 199.777344 C 178.089844 207.304688 166.511719 212.199219 153.058594 210.707031 C 139.605469 209.21875 129.371094 201.914062 130.210938 194.386719 C 130.355469 193.046875 130.847656 191.777344 131.648438 190.625 C 145.421875 193.320312 161.359375 194.921875 178.117188 195.28125 C 178.796875 196.734375 179.085938 198.257812 178.914062 199.777344 Z M 178.914062 199.777344 " fill-opacity="1" fill-rule="nonzero"/><path fill="#ffbd59" d="M 221.609375 210.707031 C 208.152344 212.203125 196.570312 207.304688 195.742188 199.777344 C 195.574219 198.210938 195.878906 196.644531 196.605469 195.148438 C 213.289062 194.582031 229.023438 192.765625 242.460938 189.867188 C 243.578125 191.226562 244.28125 192.742188 244.460938 194.386719 C 245.285156 201.914062 235.054688 209.21875 221.609375 210.707031 Z M 221.609375 210.707031 " fill-opacity="1" fill-rule="nonzero"/></svg>